<svg viewBox="0 0 16 16" xmlns="http://www.w3.org/2000/svg" style="image-rendering:pixelated;shape-rendering:crispEdges;">
  <style>@keyframes bio-glow { 0%,100%{opacity:0.5} 50%{opacity:1} }</style>
  <rect x="2" y="2" width="12" height="5" fill="#0c4a6e" opacity="0.2" style="animation:bio-glow 3s ease-in-out infinite"/>
  <rect x="3" y="0" width="1" height="6" fill="#0c4a6e"/>
  <rect x="2" y="1" width="2" height="1" fill="#0e7490"/>
  <rect x="1" y="0" width="2" height="1" fill="#0c4a6e"/>
  <rect x="2" y="3" width="2" height="1" fill="#0c4a6e"/>
  <rect x="3" y="1" width="1" height="4" fill="#06b6d4" opacity="0.6" style="animation:bio-glow 2s ease-in-out infinite"/>
  <rect x="1" y="0" width="2" height="1" fill="#67e8f9" opacity="0.5" style="animation:bio-glow 2.5s ease-in-out infinite 0.3s"/>
  <rect x="2" y="3" width="2" height="1" fill="#06b6d4" opacity="0.4" style="animation:bio-glow 3s ease-in-out infinite 0.6s"/>
  <rect x="12" y="0" width="1" height="6" fill="#0c4a6e"/>
  <rect x="12" y="1" width="2" height="1" fill="#0e7490"/>
  <rect x="13" y="0" width="2" height="1" fill="#0c4a6e"/>
  <rect x="12" y="3" width="2" height="1" fill="#0c4a6e"/>
  <rect x="12" y="1" width="1" height="4" fill="#06b6d4" opacity="0.6" style="animation:bio-glow 2s ease-in-out infinite 0.4s"/>
  <rect x="13" y="0" width="2" height="1" fill="#67e8f9" opacity="0.5" style="animation:bio-glow 2.5s ease-in-out infinite 0.7s"/>
  <rect x="3" y="8" width="10" height="5" fill="#0c2340"/>
  <rect x="2" y="9" width="1" height="4" fill="#0c2340"/>
  <rect x="13" y="9" width="1" height="4" fill="#0c2340"/>
  <rect x="4" y="9" width="3" height="1" fill="#06b6d4" opacity="0.4" style="animation:bio-glow 2.5s ease-in-out infinite"/>
  <rect x="8" y="10" width="4" height="1" fill="#06b6d4" opacity="0.3" style="animation:bio-glow 3s ease-in-out infinite 0.5s"/>
  <rect x="4" y="11" width="2" height="1" fill="#67e8f9" opacity="0.3" style="animation:bio-glow 2s ease-in-out infinite 1s"/>
  <rect x="10" y="9" width="2" height="2" fill="#06b6d4" opacity="0.25" style="animation:bio-glow 2.8s ease-in-out infinite 0.8s"/>
  <rect x="5" y="10" width="6" height="3" fill="#071829" opacity="0.7"/>
  <rect x="7" y="5" width="3" height="4" fill="#0c2340"/>
  <rect x="5" y="3" width="6" height="5" fill="#0c2340"/>
  <rect x="4" y="4" width="1" height="4" fill="#0c2340"/>
  <rect x="11" y="4" width="1" height="3" fill="#0c2340"/>
  <rect x="6" y="7" width="4" height="2" fill="#0e3460"/>
  <rect x="7" y="8" width="2" height="1" fill="#06b6d4" opacity="0.6" style="animation:bio-glow 1.5s ease-in-out infinite"/>
  <rect x="5" y="5" width="2" height="2" fill="#06b6d4" opacity="0.8" style="animation:bio-glow 1.8s ease-in-out infinite"/>
  <rect x="5" y="5" width="1" height="1" fill="#67e8f9"/>
  <rect x="9" y="5" width="2" height="2" fill="#06b6d4" opacity="0.8" style="animation:bio-glow 1.8s ease-in-out infinite 0.5s"/>
  <rect x="9" y="5" width="1" height="1" fill="#67e8f9"/>
  <rect x="3" y="13" width="2" height="3" fill="#0c2340"/>
  <rect x="2" y="15" width="3" height="1" fill="#071829"/>
  <rect x="6" y="13" width="2" height="3" fill="#0c2340"/>
  <rect x="5" y="15" width="3" height="1" fill="#071829"/>
  <rect x="9" y="13" width="2" height="3" fill="#0c2340"/>
  <rect x="8" y="15" width="3" height="1" fill="#071829"/>
  <rect x="12" y="13" width="2" height="2" fill="#0c2340"/>
  <rect x="11" y="14" width="3" height="1" fill="#071829"/>
  <rect x="3" y="14" width="1" height="1" fill="#06b6d4" opacity="0.3" style="animation:bio-glow 2s ease-in-out infinite"/>
  <rect x="9" y="14" width="1" height="1" fill="#06b6d4" opacity="0.3" style="animation:bio-glow 2.5s ease-in-out infinite 0.6s"/>
</svg>
