<svg viewBox="0 0 16 16" xmlns="http://www.w3.org/2000/svg" style="image-rendering:pixelated;shape-rendering:crispEdges;">
  <style>@keyframes ash-ember { 0%,100%{opacity:0.6} 50%{opacity:1} }</style>
  <rect x="0" y="4" width="1" height="1" fill="#a8a29e" opacity="0.4" style="animation:ash-ember 2s ease-in-out infinite"/>
  <rect x="15" y="6" width="1" height="1" fill="#78716c" opacity="0.3" style="animation:ash-ember 2.5s ease-in-out infinite 0.5s"/>
  <rect x="1" y="12" width="1" height="1" fill="#a8a29e" opacity="0.3" style="animation:ash-ember 3s ease-in-out infinite 1s"/>
  <rect x="0" y="4" width="4" height="5" fill="#1c1917" opacity="0.9"/>
  <rect x="0" y="5" width="3" height="4" fill="#292524"/>
  <rect x="1" y="6" width="1" height="2" fill="#0a0a0f"/>
  <rect x="0" y="7" width="2" height="1" fill="#f97316" opacity="0.3" style="animation:ash-ember 1.2s ease-in-out infinite"/>
  <rect x="12" y="4" width="4" height="5" fill="#1c1917" opacity="0.9"/>
  <rect x="13" y="5" width="3" height="4" fill="#292524"/>
  <rect x="14" y="6" width="1" height="2" fill="#0a0a0f"/>
  <rect x="14" y="7" width="2" height="1" fill="#f97316" opacity="0.3" style="animation:ash-ember 1.4s ease-in-out infinite 0.3s"/>
  <rect x="0" y="8" width="3" height="1" fill="#f97316" opacity="0.4" style="animation:ash-ember 1s ease-in-out infinite"/>
  <rect x="13" y="8" width="3" height="1" fill="#fbbf24" opacity="0.3" style="animation:ash-ember 1.2s ease-in-out infinite 0.2s"/>
  <rect x="3" y="6" width="10" height="5" fill="#292524"/>
  <rect x="2" y="7" width="1" height="4" fill="#292524"/>
  <rect x="13" y="7" width="1" height="4" fill="#292524"/>
  <rect x="4" y="6" width="8" height="1" fill="#44403c"/>
  <rect x="5" y="5" width="2" height="1" fill="#57534e"/>
  <rect x="8" y="5" width="2" height="1" fill="#57534e"/>
  <rect x="5" y="8" width="6" height="2" fill="#1c1917"/>
  <rect x="6" y="8" width="4" height="2" fill="#f97316" opacity="0.25" style="animation:ash-ember 0.9s ease-in-out infinite"/>
  <rect x="7" y="8" width="2" height="2" fill="#fbbf24" opacity="0.3" style="animation:ash-ember 0.7s ease-in-out infinite 0.1s"/>
  <rect x="5" y="7" width="2" height="2" fill="#44403c" opacity="0.6"/>
  <rect x="9" y="8" width="2" height="2" fill="#44403c" opacity="0.5"/>
  <rect x="10" y="3" width="3" height="5" fill="#292524"/>
  <rect x="11" y="2" width="2" height="2" fill="#292524"/>
  <rect x="10" y="4" width="3" height="1" fill="#44403c" opacity="0.6"/>
  <rect x="10" y="0" width="6" height="4" fill="#292524"/>
  <rect x="9" y="1" width="1" height="3" fill="#292524"/>
  <rect x="14" y="2" width="2" height="2" fill="#44403c"/>
  <rect x="15" y="2" width="1" height="2" fill="#3c3836"/>
  <rect x="15" y="2" width="1" height="1" fill="#f97316" opacity="0.6" style="animation:ash-ember 0.8s ease-in-out infinite"/>
  <rect x="10" y="0" width="1" height="2" fill="#57534e"/>
  <rect x="9" y="0" width="1" height="1" fill="#44403c"/>
  <rect x="12" y="0" width="1" height="2" fill="#57534e"/>
  <rect x="13" y="0" width="1" height="1" fill="#44403c"/>
  <rect x="10" y="0" width="1" height="1" fill="#f97316" opacity="0.7" style="animation:ash-ember 0.8s ease-in-out infinite"/>
  <rect x="12" y="0" width="1" height="1" fill="#fbbf24" opacity="0.6" style="animation:ash-ember 1s ease-in-out infinite 0.3s"/>
  <rect x="10" y="1" width="2" height="2" fill="#f97316" opacity="0.9" style="animation:ash-ember 0.7s ease-in-out infinite"/>
  <rect x="10" y="1" width="1" height="1" fill="#fef9c3"/>
  <rect x="13" y="1" width="2" height="2" fill="#f97316" opacity="0.9" style="animation:ash-ember 0.8s ease-in-out infinite 0.2s"/>
  <rect x="13" y="1" width="1" height="1" fill="#fef9c3"/>
  <rect x="11" y="3" width="4" height="1" fill="#1c1917"/>
  <rect x="3" y="11" width="2" height="3" fill="#292524"/>
  <rect x="2" y="13" width="3" height="1" fill="#1c1917"/>
  <rect x="2" y="14" width="1" height="1" fill="#1c1917"/>
  <rect x="3" y="14" width="1" height="1" fill="#1c1917"/>
  <rect x="4" y="14" width="1" height="1" fill="#1c1917"/>
  <rect x="6" y="11" width="2" height="3" fill="#292524"/>
  <rect x="5" y="13" width="3" height="1" fill="#1c1917"/>
  <rect x="5" y="14" width="1" height="1" fill="#1c1917"/>
  <rect x="6" y="14" width="1" height="1" fill="#1c1917"/>
  <rect x="7" y="14" width="1" height="1" fill="#1c1917"/>
  <rect x="9" y="11" width="2" height="3" fill="#292524"/>
  <rect x="8" y="13" width="3" height="1" fill="#1c1917"/>
  <rect x="8" y="14" width="1" height="1" fill="#1c1917"/>
  <rect x="9" y="14" width="1" height="1" fill="#1c1917"/>
  <rect x="0" y="9" width="4" height="2" fill="#292524"/>
  <rect x="0" y="10" width="3" height="2" fill="#44403c" opacity="0.7"/>
  <rect x="0" y="11" width="2" height="1" fill="#f97316" opacity="0.5" style="animation:ash-ember 1s ease-in-out infinite"/>
  <rect x="0" y="10" width="1" height="1" fill="#fbbf24" opacity="0.4" style="animation:ash-ember 1.2s ease-in-out infinite 0.3s"/>
</svg>
