<svg viewBox="0 0 16 16" xmlns="http://www.w3.org/2000/svg" style="image-rendering:pixelated;shape-rendering:crispEdges;">
  <style>@keyframes bogsnap-breath { 0%,100%{transform:scaleX(1)} 50%{transform:scaleX(1.02)} }</style>
  <g style="animation:bogsnap-breath 4s ease-in-out infinite">
    <rect x="0" y="10" width="3" height="2" fill="#166534"/>
    <rect x="0" y="9" width="2" height="1" fill="#14532d"/>
    <rect x="1" y="11" width="2" height="1" fill="#14532d"/>
    <rect x="0" y="9" width="3" height="1" fill="#16a34a" opacity="0.6"/>
    <rect x="2" y="8" width="9" height="5" fill="#166534"/>
    <rect x="1" y="9" width="1" height="4" fill="#166534"/>
    <rect x="11" y="9" width="1" height="3" fill="#166534"/>
    <rect x="3" y="8" width="2" height="2" fill="#14532d" opacity="0.6"/>
    <rect x="6" y="9" width="2" height="2" fill="#14532d" opacity="0.5"/>
    <rect x="9" y="8" width="2" height="2" fill="#14532d" opacity="0.6"/>
    <rect x="3" y="11" width="7" height="1" fill="#14532d" opacity="0.4"/>
    <rect x="2" y="8" width="9" height="1" fill="#15803d" opacity="0.5"/>
    <rect x="2" y="11" width="4" height="1" fill="#15803d" opacity="0.4"/>
    <rect x="8" y="10" width="3" height="1" fill="#15803d" opacity="0.4"/>
    <rect x="4" y="6" width="1" height="3" fill="#16a34a"/>
    <rect x="3" y="5" width="1" height="2" fill="#15803d"/>
    <rect x="4" y="4" width="1" height="2" fill="#22c55e" opacity="0.7"/>
    <rect x="7" y="6" width="1" height="3" fill="#16a34a"/>
    <rect x="7" y="5" width="2" height="1" fill="#15803d"/>
    <rect x="10" y="7" width="1" height="2" fill="#16a34a"/>
    <rect x="10" y="6" width="2" height="1" fill="#15803d"/>
    <rect x="9" y="6" width="5" height="4" fill="#166534"/>
    <rect x="13" y="7" width="3" height="3" fill="#166534"/>
    <rect x="10" y="6" width="6" height="2" fill="#14532d"/>
    <rect x="11" y="8" width="1" height="1" fill="#f0fdf4"/>
    <rect x="13" y="8" width="1" height="1" fill="#f0fdf4"/>
    <rect x="15" y="8" width="1" height="1" fill="#f0fdf4"/>
    <rect x="10" y="6" width="2" height="2" fill="#1c1917"/>
    <rect x="10" y="6" width="1" height="1" fill="#fbbf24"/>
    <rect x="15" y="7" width="1" height="1" fill="#14532d"/>
    <rect x="2" y="13" width="3" height="2" fill="#166534"/>
    <rect x="1" y="14" width="3" height="1" fill="#14532d"/>
    <rect x="7" y="13" width="3" height="2" fill="#166534"/>
    <rect x="6" y="14" width="3" height="1" fill="#14532d"/>
    <rect x="2" y="13" width="3" height="1" fill="#15803d" opacity="0.5"/>
  </g>
</svg>
