<svg viewBox="0 0 16 16" xmlns="http://www.w3.org/2000/svg" style="image-rendering:pixelated;shape-rendering:crispEdges;">
  <style>@keyframes mane-burn { 0%,100%{opacity:0.8} 50%{opacity:1} }</style>
  <rect x="0" y="8" width="2" height="1" fill="#b45309"/>
  <rect x="0" y="7" width="1" height="3" fill="#92400e"/>
  <rect x="1" y="6" width="1" height="4" fill="#b45309"/>
  <rect x="0" y="5" width="2" height="2" fill="#f97316" opacity="0.8"/>
  <rect x="1" y="4" width="1" height="2" fill="#fbbf24" opacity="0.7"/>
  <rect x="2" y="7" width="9" height="5" fill="#78350f"/>
  <rect x="1" y="8" width="1" height="4" fill="#78350f"/>
  <rect x="11" y="8" width="1" height="3" fill="#78350f"/>
  <rect x="3" y="8" width="6" height="3" fill="#92400e" opacity="0.5"/>
  <rect x="4" y="8" width="4" height="2" fill="#a16207" opacity="0.3"/>
  <rect x="9" y="4" width="3" height="5" fill="#78350f"/>
  <rect x="10" y="3" width="2" height="2" fill="#78350f"/>
  <rect x="8" y="3" width="2" height="5" fill="#f97316" style="animation:mane-burn 0.8s ease-in-out infinite"/>
  <rect x="9" y="2" width="2" height="3" fill="#fbbf24" style="animation:mane-burn 0.9s ease-in-out infinite 0.1s"/>
  <rect x="10" y="1" width="2" height="3" fill="#fef3c7" style="animation:mane-burn 1s ease-in-out infinite 0.2s"/>
  <rect x="7" y="4" width="2" height="3" fill="#ef4444" opacity="0.7" style="animation:mane-burn 0.7s ease-in-out infinite 0.3s"/>
  <rect x="6" y="3" width="1" height="1" fill="#fbbf24" opacity="0.6"/>
  <rect x="12" y="2" width="1" height="1" fill="#f97316" opacity="0.5"/>
  <rect x="11" y="4" width="4" height="4" fill="#78350f"/>
  <rect x="14" y="5" width="2" height="3" fill="#92400e"/>
  <rect x="15" y="6" width="1" height="1" fill="#f97316" opacity="0.7"/>
  <rect x="12" y="5" width="2" height="2" fill="#1c1917"/>
  <rect x="12" y="5" width="1" height="1" fill="#f97316"/>
  <rect x="12" y="3" width="1" height="2" fill="#78350f"/>
  <rect x="13" y="3" width="1" height="2" fill="#92400e"/>
  <rect x="3" y="12" width="2" height="3" fill="#78350f"/>
  <rect x="2" y="14" width="3" height="1" fill="#57534e"/>
  <rect x="6" y="12" width="2" height="3" fill="#78350f"/>
  <rect x="5" y="14" width="3" height="1" fill="#57534e"/>
  <rect x="9" y="12" width="2" height="2" fill="#78350f"/>
  <rect x="8" y="13" width="3" height="1" fill="#57534e"/>
</svg>
