<svg viewBox="0 0 16 16" xmlns="http://www.w3.org/2000/svg" style="image-rendering:pixelated;shape-rendering:crispEdges;">
  <style>
    @keyframes cluckle-zap { 0%,90%,100%{opacity:0} 92%,98%{opacity:1} }
  </style>
  <rect x="0" y="4" width="2" height="1" fill="#fde68a" opacity="0.8" style="animation:cluckle-zap 3s ease-in-out infinite"/>
  <rect x="14" y="8" width="2" height="1" fill="#fde68a" opacity="0.6" style="animation:cluckle-zap 3s ease-in-out infinite 1s"/>
  <rect x="1" y="7" width="2" height="1" fill="#fbbf24"/>
  <rect x="1" y="8" width="1" height="2" fill="#f59e0b"/>
  <rect x="2" y="6" width="2" height="1" fill="#fde68a"/>
  <rect x="3" y="7" width="8" height="6" fill="#fbbf24"/>
  <rect x="2" y="8" width="1" height="5" fill="#fbbf24"/>
  <rect x="11" y="8" width="1" height="4" fill="#fbbf24"/>
  <rect x="3" y="8" width="6" height="4" fill="#f59e0b" opacity="0.5"/>
  <rect x="4" y="9" width="4" height="2" fill="#fde68a" opacity="0.4"/>
  <rect x="3" y="7" width="1" height="1" fill="#fef9c3"/>
  <rect x="6" y="7" width="1" height="1" fill="#fef9c3"/>
  <rect x="9" y="7" width="1" height="1" fill="#fef9c3"/>
  <rect x="9" y="5" width="3" height="3" fill="#fbbf24"/>
  <rect x="8" y="3" width="5" height="4" fill="#fbbf24"/>
  <rect x="9" y="1" width="1" height="3" fill="#ef4444"/>
  <rect x="11" y="2" width="1" height="2" fill="#ef4444"/>
  <rect x="10" y="1" width="1" height="2" fill="#fca5a5"/>
  <rect x="12" y="5" width="1" height="2" fill="#ef4444"/>
  <rect x="13" y="4" width="2" height="1" fill="#f97316"/>
  <rect x="12" y="5" width="2" height="1" fill="#f97316"/>
  <rect x="10" y="4" width="2" height="2" fill="#1c1917"/>
  <rect x="10" y="4" width="1" height="1" fill="#fde68a"/>
  <rect x="5" y="13" width="1" height="2" fill="#f97316"/>
  <rect x="4" y="14" width="3" height="1" fill="#f97316"/>
  <rect x="8" y="13" width="1" height="2" fill="#f97316"/>
  <rect x="7" y="14" width="3" height="1" fill="#f97316"/>
  <rect x="5" y="7" width="1" height="1" fill="#fef9c3" opacity="0.9" style="animation:cluckle-zap 2s ease-in-out infinite 0.5s"/>
</svg>
