<svg viewBox="0 0 16 16" xmlns="http://www.w3.org/2000/svg" style="image-rendering:pixelated;shape-rendering:crispEdges;">
  <style>@keyframes lava-pulse { 0%,100%{opacity:0.7} 50%{opacity:1} }</style>
  <rect x="4" y="14" width="2" height="1" fill="#f97316" opacity="0.5" style="animation:lava-pulse 2s ease-in-out infinite"/>
  <rect x="9" y="14" width="2" height="1" fill="#ef4444" opacity="0.4" style="animation:lava-pulse 2.5s ease-in-out infinite 0.5s"/>
  <rect x="0" y="10" width="3" height="3" fill="#7f1d1d"/>
  <rect x="0" y="12" width="4" height="1" fill="#991b1b"/>
  <rect x="13" y="10" width="3" height="3" fill="#7f1d1d"/>
  <rect x="12" y="12" width="4" height="1" fill="#991b1b"/>
  <rect x="1" y="11" width="2" height="1" fill="#f97316" opacity="0.5" style="animation:lava-pulse 1.8s ease-in-out infinite"/>
  <rect x="13" y="11" width="2" height="1" fill="#f97316" opacity="0.5" style="animation:lava-pulse 2.2s ease-in-out infinite 0.4s"/>
  <rect x="2" y="7" width="12" height="6" fill="#7f1d1d"/>
  <rect x="1" y="8" width="1" height="5" fill="#7f1d1d"/>
  <rect x="14" y="8" width="1" height="5" fill="#7f1d1d"/>
  <rect x="3" y="7" width="3" height="3" fill="#991b1b" opacity="0.7"/>
  <rect x="7" y="7" width="4" height="2" fill="#991b1b" opacity="0.6"/>
  <rect x="11" y="8" width="3" height="3" fill="#991b1b" opacity="0.7"/>
  <rect x="4" y="8" width="2" height="1" fill="#f97316" opacity="0.8" style="animation:lava-pulse 1.5s ease-in-out infinite"/>
  <rect x="8" y="9" width="3" height="1" fill="#fbbf24" opacity="0.7" style="animation:lava-pulse 2s ease-in-out infinite 0.3s"/>
  <rect x="12" y="8" width="2" height="2" fill="#ef4444" opacity="0.6" style="animation:lava-pulse 1.8s ease-in-out infinite 0.6s"/>
  <rect x="3" y="10" width="3" height="1" fill="#fbbf24" opacity="0.5" style="animation:lava-pulse 2.3s ease-in-out infinite 0.9s"/>
  <rect x="4" y="10" width="8" height="3" fill="#450a0a"/>
  <rect x="5" y="10" width="6" height="3" fill="#57130a" opacity="0.7"/>
  <rect x="2" y="10" width="2" height="3" fill="#7f1d1d"/>
  <rect x="12" y="10" width="2" height="3" fill="#7f1d1d"/>
  <rect x="3" y="4" width="10" height="4" fill="#7f1d1d"/>
  <rect x="2" y="5" width="1" height="3" fill="#7f1d1d"/>
  <rect x="13" y="5" width="1" height="3" fill="#7f1d1d"/>
  <rect x="5" y="4" width="2" height="1" fill="#f97316" opacity="0.6" style="animation:lava-pulse 2s ease-in-out infinite 0.2s"/>
  <rect x="9" y="5" width="3" height="1" fill="#ef4444" opacity="0.5" style="animation:lava-pulse 1.7s ease-in-out infinite 0.7s"/>
  <rect x="3" y="3" width="3" height="3" fill="#991b1b"/>
  <rect x="4" y="3" width="2" height="3" fill="#1c1917"/>
  <rect x="4" y="3" width="1" height="1" fill="#f97316"/>
  <rect x="10" y="3" width="3" height="3" fill="#991b1b"/>
  <rect x="10" y="3" width="2" height="3" fill="#1c1917"/>
  <rect x="10" y="3" width="1" height="1" fill="#f97316"/>
  <rect x="4" y="7" width="8" height="1" fill="#450a0a"/>
  <rect x="5" y="7" width="6" height="1" fill="#1c1917"/>
  <rect x="6" y="8" width="1" height="1" fill="#f97316" opacity="0.6"/>
  <rect x="9" y="8" width="1" height="1" fill="#fbbf24" opacity="0.5"/>
</svg>
