<svg viewBox="0 0 16 16" xmlns="http://www.w3.org/2000/svg" style="image-rendering:pixelated;shape-rendering:crispEdges;">
  <style>@keyframes golem-glow { 0%,100%{opacity:0.5} 50%{opacity:0.9} }</style>
  <rect x="2" y="15" width="12" height="1" fill="#292524" opacity="0.6"/>
  <rect x="4" y="14" width="8" height="1" fill="#1c1917" opacity="0.4"/>
  <rect x="2" y="6" width="12" height="8" fill="#57534e"/>
  <rect x="1" y="8" width="1" height="5" fill="#57534e"/>
  <rect x="14" y="8" width="1" height="5" fill="#57534e"/>
  <rect x="3" y="5" width="10" height="1" fill="#57534e"/>
  <rect x="2" y="6" width="5" height="4" fill="#44403c" opacity="0.7"/>
  <rect x="8" y="6" width="6" height="4" fill="#44403c" opacity="0.6"/>
  <rect x="2" y="10" width="12" height="3" fill="#3c3836" opacity="0.5"/>
  <rect x="3" y="7" width="3" height="1" fill="#292524" opacity="0.6"/>
  <rect x="8" y="8" width="4" height="1" fill="#292524" opacity="0.5"/>
  <rect x="4" y="11" width="6" height="1" fill="#292524" opacity="0.4"/>
  <rect x="2" y="9" width="2" height="1" fill="#292524" opacity="0.5"/>
  <rect x="12" y="9" width="2" height="1" fill="#292524" opacity="0.5"/>
  <rect x="3" y="6" width="2" height="1" fill="#78716c" opacity="0.5"/>
  <rect x="10" y="6" width="3" height="1" fill="#78716c" opacity="0.4"/>
  <rect x="6" y="9" width="4" height="2" fill="#1d4ed8" opacity="0.2" style="animation:golem-glow 3s ease-in-out infinite"/>
  <rect x="7" y="9" width="2" height="2" fill="#3b82f6" opacity="0.3" style="animation:golem-glow 3s ease-in-out infinite"/>
  <rect x="0" y="7" width="3" height="5" fill="#57534e"/>
  <rect x="0" y="11" width="4" height="2" fill="#44403c"/>
  <rect x="13" y="7" width="3" height="5" fill="#57534e"/>
  <rect x="12" y="11" width="4" height="2" fill="#44403c"/>
  <rect x="0" y="12" width="2" height="1" fill="#1c1917"/>
  <rect x="2" y="12" width="2" height="1" fill="#1c1917"/>
  <rect x="12" y="12" width="2" height="1" fill="#1c1917"/>
  <rect x="14" y="12" width="2" height="1" fill="#1c1917"/>
  <rect x="4" y="2" width="8" height="5" fill="#57534e"/>
  <rect x="3" y="3" width="1" height="3" fill="#57534e"/>
  <rect x="12" y="3" width="1" height="3" fill="#57534e"/>
  <rect x="4" y="2" width="8" height="1" fill="#78716c" opacity="0.4"/>
  <rect x="5" y="3" width="2" height="1" fill="#292524" opacity="0.5"/>
  <rect x="9" y="4" width="3" height="1" fill="#292524" opacity="0.4"/>
  <rect x="5" y="3" width="2" height="2" fill="#1d4ed8" opacity="0.7" style="animation:golem-glow 2s ease-in-out infinite"/>
  <rect x="6" y="3" width="1" height="1" fill="#93c5fd"/>
  <rect x="9" y="3" width="2" height="2" fill="#1d4ed8" opacity="0.7" style="animation:golem-glow 2s ease-in-out infinite 0.5s"/>
  <rect x="9" y="3" width="1" height="1" fill="#93c5fd"/>
  <rect x="4" y="1" width="2" height="2" fill="#44403c"/>
  <rect x="10" y="1" width="2" height="2" fill="#44403c"/>
  <rect x="7" y="5" width="2" height="1" fill="#292524"/>
  <rect x="6" y="6" width="4" height="1" fill="#292524"/>
  <rect x="3" y="13" width="4" height="2" fill="#44403c"/>
  <rect x="2" y="14" width="5" height="1" fill="#292524"/>
  <rect x="9" y="13" width="4" height="2" fill="#44403c"/>
  <rect x="9" y="14" width="5" height="1" fill="#292524"/>
</svg>
