<svg viewBox="0 0 16 16" xmlns="http://www.w3.org/2000/svg" style="image-rendering:pixelated;shape-rendering:crispEdges;">
  <style>
    @keyframes flicket-glow { 0%,100%{opacity:0.2} 50%{opacity:0.4} }
  </style>
  <ellipse cx="8" cy="11" rx="5" ry="3" fill="#fbbf24" opacity="0.2" style="animation:flicket-glow 2s ease-in-out infinite"/>
  <rect x="1" y="11" width="3" height="2" fill="#15803d"/>
  <rect x="0" y="12" width="2" height="1" fill="#15803d"/>
  <rect x="12" y="11" width="3" height="2" fill="#15803d"/>
  <rect x="14" y="12" width="2" height="1" fill="#15803d"/>
  <rect x="3" y="7" width="10" height="6" fill="#16a34a"/>
  <rect x="2" y="9" width="1" height="4" fill="#16a34a"/>
  <rect x="13" y="9" width="1" height="4" fill="#16a34a"/>
  <rect x="4" y="9" width="8" height="4" fill="#fbbf24"/>
  <rect x="5" y="9" width="6" height="4" fill="#fef3c7"/>
  <rect x="6" y="10" width="4" height="2" fill="#fde68a" opacity="0.7"/>
  <rect x="4" y="7" width="8" height="2" fill="#14532d"/>
  <rect x="5" y="7" width="6" height="1" fill="#166534"/>
  <rect x="4" y="8" width="2" height="2" fill="#15803d" opacity="0.5"/>
  <rect x="10" y="8" width="2" height="2" fill="#15803d" opacity="0.5"/>
  <rect x="4" y="3" width="8" height="5" fill="#16a34a"/>
  <rect x="3" y="4" width="1" height="3" fill="#16a34a"/>
  <rect x="12" y="4" width="1" height="3" fill="#16a34a"/>
  <rect x="3" y="3" width="3" height="3" fill="#166534"/>
  <rect x="4" y="3" width="2" height="2" fill="#1c1917"/>
  <rect x="4" y="3" width="1" height="1" fill="#fef9c3" opacity="0.8"/>
  <rect x="10" y="3" width="3" height="3" fill="#166534"/>
  <rect x="10" y="3" width="2" height="2" fill="#1c1917"/>
  <rect x="10" y="3" width="1" height="1" fill="#fef9c3" opacity="0.8"/>
  <rect x="5" y="7" width="6" height="1" fill="#14532d"/>
  <rect x="6" y="7" width="4" height="1" fill="#1c1917"/>
  <rect x="3" y="10" width="2" height="3" fill="#15803d"/>
  <rect x="11" y="10" width="2" height="3" fill="#15803d"/>
  <rect x="5" y="13" width="6" height="1" fill="#fef3c7" opacity="0.4"/>
</svg>
