<svg viewBox="0 0 16 16" xmlns="http://www.w3.org/2000/svg" style="image-rendering:pixelated;shape-rendering:crispEdges;">
  <style>
    @keyframes grubbin-pulse { 0%,100%{opacity:0.3} 50%{opacity:0.7} }
  </style>
  <rect x="3" y="7" width="10" height="6" fill="#78716c"/>
  <rect x="2" y="8" width="1" height="4" fill="#78716c"/>
  <rect x="13" y="8" width="1" height="4" fill="#78716c"/>
  <rect x="3" y="13" width="10" height="1" fill="#57534e"/>
  <rect x="4" y="8" width="6" height="5" fill="#d6d3d1"/>
  <rect x="3" y="6" width="1" height="3" fill="#44403c"/>
  <rect x="5" y="5" width="1" height="3" fill="#44403c"/>
  <rect x="7" y="4" width="1" height="4" fill="#44403c"/>
  <rect x="9" y="5" width="1" height="3" fill="#44403c"/>
  <rect x="11" y="6" width="1" height="3" fill="#44403c"/>
  <rect x="13" y="7" width="1" height="2" fill="#44403c"/>
  <rect x="2" y="5" width="3" height="2" fill="#dc2626"/>
  <rect x="3" y="4" width="1" height="1" fill="#dc2626"/>
  <rect x="2" y="6" width="3" height="1" fill="#fca5a5" opacity="0.6"/>
  <rect x="3" y="5" width="1" height="1" fill="#fef2f2" opacity="0.8"/>
  <rect x="4" y="5" width="1" height="1" fill="#fef2f2" opacity="0.6"/>
  <rect x="6" y="3" width="3" height="2" fill="#16a34a"/>
  <rect x="7" y="2" width="1" height="1" fill="#16a34a"/>
  <rect x="6" y="4" width="3" height="1" fill="#86efac" opacity="0.6"/>
  <rect x="7" y="3" width="1" height="1" fill="#f0fdf4" opacity="0.8"/>
  <rect x="10" y="4" width="3" height="2" fill="#9333ea"/>
  <rect x="11" y="3" width="1" height="1" fill="#9333ea"/>
  <rect x="10" y="5" width="3" height="1" fill="#d8b4fe" opacity="0.6"/>
  <rect x="11" y="4" width="1" height="1" fill="#faf5ff" opacity="0.8"/>
  <rect x="2" y="7" width="3" height="1" fill="#fca5a5" opacity="0.3" style="animation:grubbin-pulse 2s ease-in-out infinite"/>
  <rect x="6" y="6" width="3" height="1" fill="#86efac" opacity="0.3" style="animation:grubbin-pulse 2.5s ease-in-out infinite 0.5s"/>
  <rect x="10" y="6" width="3" height="1" fill="#d8b4fe" opacity="0.3" style="animation:grubbin-pulse 3s ease-in-out infinite 1s"/>
  <rect x="9" y="8" width="4" height="3" fill="#d6d3d1"/>
  <rect x="12" y="9" width="2" height="2" fill="#e7e5e4"/>
  <rect x="10" y="8" width="2" height="2" fill="#1c1917"/>
  <rect x="10" y="8" width="1" height="1" fill="#fafaf9" opacity="0.7"/>
  <rect x="13" y="9" width="1" height="1" fill="#1c1917"/>
  <rect x="3" y="13" width="2" height="1" fill="#57534e"/>
  <rect x="6" y="13" width="2" height="1" fill="#57534e"/>
  <rect x="9" y="13" width="2" height="1" fill="#57534e"/>
</svg>
