<svg viewBox="0 0 16 16" xmlns="http://www.w3.org/2000/svg" style="image-rendering:pixelated;shape-rendering:crispEdges;">
  <style>
    @keyframes ash-ember { 0%,100%{opacity:0.6} 50%{opacity:1} }
    @keyframes tech-blink { 0%,90%,100%{opacity:1} 95%{opacity:0.2} }
  </style>
  <rect x="3" y="13" width="2" height="2" fill="#f97316" opacity="0.7" style="animation:ash-ember 0.5s ease-in-out infinite"/>
  <rect x="3" y="14" width="2" height="2" fill="#fbbf24" opacity="0.5" style="animation:ash-ember 0.6s ease-in-out infinite 0.1s"/>
  <rect x="4" y="15" width="1" height="1" fill="#fef3c7" opacity="0.4" style="animation:ash-ember 0.7s ease-in-out infinite 0.2s"/>
  <rect x="2" y="8" width="3" height="5" fill="#374151"/>
  <rect x="2" y="9" width="3" height="3" fill="#4b5563"/>
  <rect x="3" y="8" width="1" height="5" fill="#6b7280" opacity="0.5"/>
  <rect x="2" y="9" width="1" height="1" fill="#10b981" opacity="0.8" style="animation:tech-blink 2s ease-in-out infinite"/>
  <rect x="2" y="11" width="1" height="1" fill="#ef4444" opacity="0.8" style="animation:tech-blink 2s ease-in-out infinite 1s"/>
  <rect x="4" y="7" width="8" height="6" fill="#6b7280"/>
  <rect x="3" y="8" width="1" height="5" fill="#6b7280"/>
  <rect x="12" y="8" width="1" height="4" fill="#6b7280"/>
  <rect x="5" y="7" width="6" height="2" fill="#374151"/>
  <rect x="6" y="9" width="4" height="2" fill="#4b5563" opacity="0.6"/>
  <rect x="5" y="8" width="5" height="4" fill="#1f2937"/>
  <rect x="6" y="9" width="3" height="2" fill="#374151"/>
  <rect x="6" y="9" width="3" height="1" fill="#10b981" opacity="0.5" style="animation:tech-blink 1.5s ease-in-out infinite"/>
  <rect x="7" y="9" width="1" height="2" fill="#3b82f6" opacity="0.4" style="animation:tech-blink 2s ease-in-out infinite 0.5s"/>
  <rect x="12" y="8" width="3" height="2" fill="#6b7280"/>
  <rect x="14" y="7" width="2" height="3" fill="#374151"/>
  <rect x="14" y="8" width="3" height="2" fill="#1f2937"/>
  <rect x="15" y="7" width="1" height="4" fill="#111827"/>
  <rect x="15" y="7" width="1" height="1" fill="#10b981" opacity="0.7" style="animation:tech-blink 1s ease-in-out infinite"/>
  <rect x="5" y="3" width="7" height="5" fill="#6b7280"/>
  <rect x="4" y="4" width="1" height="4" fill="#6b7280"/>
  <rect x="12" y="4" width="1" height="3" fill="#6b7280"/>
  <rect x="5" y="5" width="7" height="3" fill="#374151"/>
  <rect x="5" y="4" width="2" height="2" fill="#374151"/>
  <rect x="9" y="4" width="2" height="2" fill="#374151"/>
  <rect x="5" y="4" width="3" height="3" fill="#1f2937"/>
  <rect x="9" y="4" width="3" height="3" fill="#1f2937"/>
  <rect x="6" y="4" width="2" height="2" fill="#10b981" opacity="0.8" style="animation:tech-blink 1.5s ease-in-out infinite"/>
  <rect x="6" y="4" width="1" height="1" fill="#6ee7b7"/>
  <rect x="10" y="4" width="2" height="2" fill="#3b82f6" opacity="0.8" style="animation:tech-blink 1.5s ease-in-out infinite 0.3s"/>
  <rect x="10" y="4" width="1" height="1" fill="#93c5fd"/>
  <rect x="8" y="5" width="2" height="1" fill="#4b5563"/>
  <rect x="5" y="1" width="2" height="3" fill="#6b7280"/>
  <rect x="5" y="1" width="1" height="2" fill="#4b5563"/>
  <rect x="10" y="1" width="2" height="3" fill="#6b7280"/>
  <rect x="11" y="1" width="1" height="2" fill="#4b5563"/>
  <rect x="7" y="7" width="2" height="1" fill="#1f2937"/>
  <rect x="8" y="7" width="1" height="1" fill="#111827"/>
  <rect x="12" y="10" width="3" height="3" fill="#6b7280"/>
  <rect x="13" y="9" width="2" height="4" fill="#374151"/>
  <rect x="12" y="10" width="1" height="1" fill="#6b7280"/>
  <rect x="12" y="12" width="1" height="1" fill="#6b7280"/>
  <rect x="13" y="11" width="1" height="1" fill="#6b7280"/>
  <rect x="5" y="13" width="2" height="2" fill="#6b7280"/>
  <rect x="4" y="14" width="3" height="1" fill="#374151"/>
  <rect x="9" y="13" width="2" height="2" fill="#6b7280"/>
  <rect x="9" y="14" width="3" height="1" fill="#374151"/>
</svg>
