<svg viewBox="0 0 16 16" xmlns="http://www.w3.org/2000/svg" style="image-rendering:pixelated;shape-rendering:crispEdges;">
  <style>
    @keyframes lunnis-glow { 0%,100%{opacity:0.5} 50%{opacity:1} }
  </style>
  <circle cx="8" cy="8" r="6" fill="#fef9c3" opacity="0.15" style="animation:lunnis-glow 3s ease-in-out infinite"/>
  <rect x="5" y="0" width="2" height="6" fill="#e2e8f0"/>
  <rect x="9" y="0" width="2" height="6" fill="#e2e8f0"/>
  <rect x="5" y="1" width="1" height="4" fill="#fbcfe8"/>
  <rect x="10" y="1" width="1" height="4" fill="#fbcfe8"/>
  <rect x="5" y="0" width="2" height="1" fill="#cbd5e1"/>
  <rect x="9" y="0" width="2" height="1" fill="#cbd5e1"/>
  <rect x="4" y="8" width="8" height="5" fill="#f1f5f9"/>
  <rect x="3" y="9" width="1" height="4" fill="#f1f5f9"/>
  <rect x="12" y="9" width="1" height="4" fill="#f1f5f9"/>
  <rect x="5" y="9" width="6" height="4" fill="#fefce8"/>
  <rect x="4" y="4" width="8" height="5" fill="#f1f5f9"/>
  <rect x="7" y="4" width="2" height="1" fill="#fde68a"/>
  <rect x="6" y="5" width="4" height="1" fill="#fde68a" opacity="0.6"/>
  <rect x="5" y="6" width="2" height="2" fill="#1e293b"/>
  <rect x="9" y="6" width="2" height="2" fill="#1e293b"/>
  <rect x="5" y="6" width="1" height="1" fill="#e2e8f0" opacity="0.8"/>
  <rect x="9" y="6" width="1" height="1" fill="#e2e8f0" opacity="0.8"/>
  <rect x="6" y="6" width="1" height="1" fill="#fef9c3"/>
  <rect x="10" y="6" width="1" height="1" fill="#fef9c3"/>
  <rect x="7" y="8" width="2" height="1" fill="#fda4af"/>
  <rect x="7" y="9" width="1" height="1" fill="#fda4af"/>
  <rect x="4" y="13" width="3" height="2" fill="#e2e8f0"/>
  <rect x="9" y="13" width="3" height="2" fill="#e2e8f0"/>
  <rect x="1" y="3" width="1" height="1" fill="#fde68a" opacity="0.7" style="animation:lunnis-glow 2s ease-in-out infinite"/>
  <rect x="14" y="5" width="1" height="1" fill="#fde68a" opacity="0.5" style="animation:lunnis-glow 2.5s ease-in-out infinite 0.7s"/>
  <rect x="13" y="2" width="1" height="1" fill="#fde68a" opacity="0.4" style="animation:lunnis-glow 3s ease-in-out infinite 1.2s"/>
</svg>
