<svg viewBox="0 0 16 16" xmlns="http://www.w3.org/2000/svg" style="image-rendering:pixelated;shape-rendering:crispEdges;">
  <style>
    @keyframes mossfin-sway { 0%,100%{transform:rotate(0deg)} 50%{transform:rotate(2deg)} }
  </style>
  <g style="animation:mossfin-sway 4s ease-in-out infinite">
    <rect x="0" y="8" width="2" height="1" fill="#15803d"/>
    <rect x="0" y="7" width="2" height="1" fill="#166534"/>
    <rect x="0" y="9" width="2" height="1" fill="#166534"/>
    <rect x="1" y="6" width="2" height="1" fill="#15803d"/>
    <rect x="1" y="10" width="2" height="1" fill="#15803d"/>
    <rect x="2" y="6" width="9" height="6" fill="#0f766e"/>
    <rect x="1" y="7" width="1" height="4" fill="#0f766e"/>
    <rect x="11" y="7" width="1" height="4" fill="#0f766e"/>
    <rect x="3" y="6" width="3" height="2" fill="#15803d"/>
    <rect x="7" y="7" width="3" height="2" fill="#15803d"/>
    <rect x="4" y="9" width="4" height="2" fill="#166534"/>
    <rect x="2" y="8" width="2" height="2" fill="#15803d" opacity="0.7"/>
    <rect x="3" y="6" width="1" height="1" fill="#22c55e" opacity="0.5"/>
    <rect x="5" y="7" width="1" height="1" fill="#22c55e" opacity="0.4"/>
    <rect x="8" y="7" width="1" height="1" fill="#22c55e" opacity="0.5"/>
    <rect x="4" y="9" width="1" height="1" fill="#22c55e" opacity="0.4"/>
    <rect x="3" y="8" width="2" height="1" fill="#0d9488" opacity="0.4"/>
    <rect x="6" y="8" width="2" height="1" fill="#0d9488" opacity="0.4"/>
    <rect x="9" y="8" width="2" height="1" fill="#0d9488" opacity="0.4"/>
    <rect x="10" y="5" width="4" height="5" fill="#0f766e"/>
    <rect x="13" y="6" width="2" height="3" fill="#0f766e"/>
    <rect x="14" y="8" width="2" height="1" fill="#134e4a"/>
    <rect x="13" y="9" width="2" height="1" fill="#134e4a"/>
    <rect x="11" y="6" width="2" height="2" fill="#1c1917"/>
    <rect x="11" y="6" width="1" height="1" fill="#fef9c3" opacity="0.8"/>
    <rect x="5" y="4" width="1" height="3" fill="#15803d"/>
    <rect x="7" y="3" width="1" height="4" fill="#15803d"/>
    <rect x="9" y="4" width="1" height="3" fill="#15803d"/>
    <rect x="4" y="12" width="2" height="2" fill="#15803d"/>
    <rect x="3" y="13" width="3" height="1" fill="#15803d"/>
    <rect x="8" y="12" width="2" height="2" fill="#15803d"/>
    <rect x="7" y="13" width="3" height="1" fill="#15803d"/>
  </g>
</svg>
