<svg viewBox="0 0 16 16" xmlns="http://www.w3.org/2000/svg" style="image-rendering:pixelated;shape-rendering:crispEdges;">
  <style>@keyframes nebula-pulse { 0%,100%{opacity:0.5} 50%{opacity:1} }</style>
  <rect x="0" y="1" width="1" height="1" fill="#fef9c3" opacity="0.5" style="animation:nebula-pulse 2s ease-in-out infinite"/>
  <rect x="15" y="3" width="1" height="1" fill="#fef9c3" opacity="0.4" style="animation:nebula-pulse 3s ease-in-out infinite 0.7s"/>
  <rect x="1" y="14" width="1" height="1" fill="#fef9c3" opacity="0.3" style="animation:nebula-pulse 2.5s ease-in-out infinite 1.2s"/>
  <rect x="11" y="8" width="1" height="1" fill="#fef9c3"/>
  <rect x="12" y="7" width="2" height="1" fill="#fef9c3"/>
  <rect x="13" y="6" width="2" height="1" fill="#fef9c3"/>
  <rect x="14" y="5" width="2" height="2" fill="#f5f5f4"/>
  <rect x="11" y="10" width="1" height="1" fill="#fef9c3"/>
  <rect x="12" y="11" width="2" height="1" fill="#fef9c3"/>
  <rect x="13" y="12" width="2" height="1" fill="#fef9c3"/>
  <rect x="14" y="12" width="2" height="2" fill="#f5f5f4"/>
  <rect x="12" y="9" width="3" height="1" fill="#1e1b4b"/>
  <rect x="13" y="10" width="2" height="2" fill="#2e1065"/>
  <rect x="13" y="12" width="2" height="1" fill="#1e1b4b"/>
  <rect x="12" y="13" width="2" height="1" fill="#2e1065"/>
  <rect x="11" y="13" width="2" height="1" fill="#1e1b4b"/>
  <rect x="1" y="7" width="12" height="7" fill="#1e1b4b"/>
  <rect x="0" y="9" width="1" height="4" fill="#1e1b4b"/>
  <rect x="13" y="9" width="1" height="4" fill="#1e1b4b"/>
  <rect x="2" y="6" width="10" height="1" fill="#1e1b4b"/>
  <rect x="1" y="7" width="12" height="2" fill="#2e1065" opacity="0.6"/>
  <rect x="0" y="9" width="2" height="2" fill="#2e1065" opacity="0.5"/>
  <rect x="12" y="8" width="2" height="2" fill="#2e1065" opacity="0.5"/>
  <rect x="2" y="9" width="4" height="2" fill="#4c1d95" opacity="0.4"/>
  <rect x="7" y="8" width="4" height="3" fill="#7c3aed" opacity="0.3"/>
  <rect x="3" y="9" width="1" height="1" fill="#fbbf24" opacity="0.6" style="animation:nebula-pulse 1.5s ease-in-out infinite"/>
  <rect x="7" y="10" width="1" height="1" fill="#fef9c3" opacity="0.5" style="animation:nebula-pulse 2s ease-in-out infinite 0.5s"/>
  <rect x="10" y="9" width="1" height="1" fill="#fbbf24" opacity="0.4" style="animation:nebula-pulse 2.5s ease-in-out infinite 1s"/>
  <rect x="7" y="2" width="7" height="6" fill="#1e1b4b"/>
  <rect x="6" y="3" width="1" height="5" fill="#1e1b4b"/>
  <rect x="8" y="1" width="5" height="2" fill="#2e1065"/>
  <rect x="9" y="0" width="4" height="2" fill="#1e1b4b"/>
  <rect x="7" y="2" width="7" height="2" fill="#2e1065" opacity="0.5"/>
  <rect x="8" y="3" width="4" height="2" fill="#4c1d95" opacity="0.4"/>
  <rect x="10" y="2" width="1" height="1" fill="#fbbf24" opacity="0.7" style="animation:nebula-pulse 1s ease-in-out infinite"/>
  <rect x="8" y="4" width="2" height="2" fill="#a855f7" opacity="0.9" style="animation:nebula-pulse 1s ease-in-out infinite"/>
  <rect x="8" y="4" width="1" height="1" fill="#f0abfc"/>
  <rect x="11" y="4" width="2" height="2" fill="#a855f7" opacity="0.9" style="animation:nebula-pulse 1s ease-in-out infinite 0.3s"/>
  <rect x="11" y="4" width="1" height="1" fill="#f0abfc"/>
  <rect x="6" y="3" width="2" height="4" fill="#2e1065"/>
  <rect x="6" y="4" width="1" height="3" fill="#1e1b4b"/>
  <rect x="1" y="13" width="3" height="3" fill="#1e1b4b"/>
  <rect x="0" y="15" width="4" height="1" fill="#0f0a1e"/>
  <rect x="5" y="13" width="3" height="3" fill="#1e1b4b"/>
  <rect x="4" y="15" width="4" height="1" fill="#0f0a1e"/>
  <rect x="9" y="13" width="3" height="2" fill="#1e1b4b"/>
  <rect x="8" y="14" width="4" height="1" fill="#0f0a1e"/>
  <rect x="1" y="14" width="2" height="1" fill="#4c1d95" opacity="0.3" style="animation:nebula-pulse 2s ease-in-out infinite"/>
</svg>
