<svg viewBox="0 0 16 16" xmlns="http://www.w3.org/2000/svg" style="image-rendering:pixelated;shape-rendering:crispEdges;">
  <ellipse cx="8" cy="14" rx="5" ry="1" fill="#1c1917" opacity="0.4"/>
  <rect x="3" y="4" width="10" height="9" fill="#78716c"/>
  <rect x="2" y="6" width="1" height="5" fill="#78716c"/>
  <rect x="13" y="6" width="1" height="5" fill="#78716c"/>
  <rect x="4" y="3" width="8" height="1" fill="#78716c"/>
  <rect x="3" y="13" width="10" height="1" fill="#57534e"/>
  <rect x="4" y="4" width="3" height="4" fill="#57534e" opacity="0.5"/>
  <rect x="8" y="4" width="4" height="4" fill="#57534e" opacity="0.4"/>
  <rect x="4" y="8" width="8" height="3" fill="#57534e" opacity="0.3"/>
  <rect x="5" y="5" width="2" height="1" fill="#44403c" opacity="0.6"/>
  <rect x="9" y="6" width="3" height="1" fill="#44403c" opacity="0.6"/>
  <rect x="5" y="9" width="6" height="1" fill="#44403c" opacity="0.4"/>
  <rect x="4" y="4" width="2" height="1" fill="#a8a29e" opacity="0.4"/>
  <rect x="9" y="4" width="2" height="1" fill="#a8a29e" opacity="0.3"/>
  <rect x="6" y="11" width="4" height="2" fill="#d6d3d1"/>
  <rect x="7" y="11" width="2" height="1" fill="#e7e5e4"/>
  <rect x="6" y="11" width="1" height="1" fill="#1c1917"/>
  <rect x="9" y="11" width="1" height="1" fill="#1c1917"/>
  <rect x="4" y="13" width="2" height="1" fill="#57534e"/>
  <rect x="10" y="13" width="2" height="1" fill="#57534e"/>
  <rect x="12" y="10" width="2" height="1" fill="#78716c"/>
  <rect x="13" y="9" width="1" height="1" fill="#78716c"/>
</svg>
