<svg viewBox="0 0 16 16" xmlns="http://www.w3.org/2000/svg" style="image-rendering:pixelated;shape-rendering:crispEdges;">
  <style>@keyframes fire-flicker { 0%,100%{opacity:0.8} 50%{opacity:1} }</style>
  <rect x="3" y="14" width="10" height="1" fill="#451a03" opacity="0.5"/>
  <rect x="4" y="15" width="8" height="1" fill="#7c2d12" opacity="0.3"/>
  <rect x="3" y="8" width="9" height="5" fill="#7c2d12"/>
  <rect x="2" y="9" width="1" height="4" fill="#7c2d12"/>
  <rect x="12" y="9" width="1" height="3" fill="#7c2d12"/>
  <rect x="4" y="8" width="2" height="3" fill="#ea580c" opacity="0.6"/>
  <rect x="7" y="9" width="3" height="2" fill="#f97316" opacity="0.5"/>
  <rect x="10" y="8" width="2" height="3" fill="#ea580c" opacity="0.6"/>
  <rect x="4" y="10" width="7" height="3" fill="#9a3412" opacity="0.6"/>
  <rect x="12" y="10" width="2" height="2" fill="#7c2d12"/>
  <rect x="13" y="9" width="1" height="2" fill="#991b1b" opacity="0.5"/>
  <rect x="13" y="8" width="2" height="3" fill="#f97316" opacity="0.7" style="animation:fire-flicker 0.6s ease-in-out infinite"/>
  <rect x="14" y="7" width="2" height="3" fill="#fbbf24" opacity="0.5" style="animation:fire-flicker 0.7s ease-in-out infinite 0.1s"/>
  <rect x="15" y="6" width="1" height="3" fill="#fef3c7" opacity="0.4" style="animation:fire-flicker 0.8s ease-in-out infinite 0.2s"/>
  <rect x="9" y="5" width="3" height="4" fill="#7c2d12"/>
  <rect x="7" y="3" width="6" height="5" fill="#7c2d12"/>
  <rect x="6" y="4" width="1" height="4" fill="#7c2d12"/>
  <rect x="12" y="5" width="3" height="3" fill="#9a3412"/>
  <rect x="13" y="6" width="2" height="2" fill="#7c2d12"/>
  <rect x="14" y="6" width="1" height="1" fill="#fda4af"/>
  <rect x="8" y="4" width="2" height="2" fill="#f97316" opacity="0.9" style="animation:fire-flicker 1s ease-in-out infinite"/>
  <rect x="8" y="4" width="1" height="1" fill="#fef9c3"/>
  <rect x="11" y="4" width="2" height="2" fill="#f97316" opacity="0.9" style="animation:fire-flicker 1s ease-in-out infinite 0.3s"/>
  <rect x="11" y="4" width="1" height="1" fill="#fef9c3"/>
  <rect x="7" y="1" width="2" height="3" fill="#7c2d12"/>
  <rect x="7" y="1" width="1" height="2" fill="#f97316" opacity="0.5"/>
  <rect x="12" y="1" width="2" height="3" fill="#7c2d12"/>
  <rect x="13" y="1" width="1" height="2" fill="#f97316" opacity="0.5"/>
  <rect x="7" y="0" width="2" height="2" fill="#fbbf24" opacity="0.6" style="animation:fire-flicker 0.9s ease-in-out infinite"/>
  <rect x="12" y="0" width="2" height="2" fill="#fbbf24" opacity="0.5" style="animation:fire-flicker 1s ease-in-out infinite 0.4s"/>
  <rect x="3" y="13" width="3" height="2" fill="#7c2d12"/>
  <rect x="2" y="14" width="4" height="1" fill="#451a03"/>
  <rect x="8" y="13" width="3" height="2" fill="#7c2d12"/>
  <rect x="7" y="14" width="4" height="1" fill="#451a03"/>
  <rect x="3" y="14" width="2" height="1" fill="#f97316" opacity="0.3"/>
  <rect x="8" y="14" width="2" height="1" fill="#f97316" opacity="0.3"/>
</svg>
