<svg viewBox="0 0 16 16" xmlns="http://www.w3.org/2000/svg" style="image-rendering:pixelated;shape-rendering:crispEdges;">
  <style>@keyframes rift-flicker { 0%,100%{opacity:0.4} 50%{opacity:1} }</style>
  <rect x="0" y="2" width="3" height="4" fill="#7c3aed" opacity="0.2" style="animation:rift-flicker 1.5s ease-in-out infinite"/>
  <rect x="0" y="3" width="2" height="2" fill="#a855f7" opacity="0.3" style="animation:rift-flicker 1.5s ease-in-out infinite"/>
  <rect x="13" y="10" width="3" height="4" fill="#6d28d9" opacity="0.2" style="animation:rift-flicker 2s ease-in-out infinite 0.5s"/>
  <rect x="14" y="11" width="2" height="2" fill="#a855f7" opacity="0.3" style="animation:rift-flicker 2s ease-in-out infinite 0.5s"/>
  <rect x="0" y="5" width="6" height="4" fill="#2e1065"/>
  <rect x="1" y="4" width="5" height="1" fill="#2e1065"/>
  <rect x="0" y="9" width="5" height="1" fill="#1e1b4b"/>
  <rect x="0" y="7" width="1" height="1" fill="#dc2626"/>
  <rect x="0" y="6" width="1" height="1" fill="#dc2626"/>
  <rect x="0" y="8" width="1" height="1" fill="#dc2626"/>
  <rect x="2" y="5" width="3" height="3" fill="#0f0a1e"/>
  <rect x="3" y="5" width="2" height="3" fill="#a855f7" opacity="0.9" style="animation:rift-flicker 0.8s ease-in-out infinite"/>
  <rect x="3" y="6" width="1" height="1" fill="#f0abfc"/>
  <rect x="4" y="5" width="1" height="3" fill="#0f0a1e"/>
  <rect x="2" y="4" width="4" height="1" fill="#4c1d95" opacity="0.6"/>
  <rect x="1" y="5" width="1" height="2" fill="#4c1d95" opacity="0.4"/>
  <rect x="5" y="7" width="4" height="3" fill="#2e1065"/>
  <rect x="6" y="6" width="3" height="1" fill="#2e1065"/>
  <rect x="6" y="7" width="2" height="2" fill="#7c3aed" opacity="0.5" style="animation:rift-flicker 1.2s ease-in-out infinite"/>
  <rect x="7" y="8" width="8" height="4" fill="#1e1b4b"/>
  <rect x="8" y="7" width="7" height="1" fill="#2e1065"/>
  <rect x="8" y="12" width="7" height="1" fill="#2e1065"/>
  <rect x="8" y="8" width="2" height="2" fill="#4c1d95" opacity="0.4"/>
  <rect x="11" y="9" width="2" height="2" fill="#4c1d95" opacity="0.4"/>
  <rect x="9" y="8" width="2" height="3" fill="#7c3aed" opacity="0.4" style="animation:rift-flicker 1s ease-in-out infinite 0.3s"/>
  <rect x="13" y="9" width="2" height="2" fill="#a855f7" opacity="0.5" style="animation:rift-flicker 1.4s ease-in-out infinite 0.8s"/>
  <rect x="8" y="10" width="6" height="1" fill="#c084fc" opacity="0.2" style="animation:rift-flicker 0.9s ease-in-out infinite 0.2s"/>
  <rect x="12" y="11" width="4" height="4" fill="#1e1b4b"/>
  <rect x="13" y="10" width="3" height="1" fill="#2e1065"/>
  <rect x="11" y="12" width="2" height="3" fill="#2e1065" opacity="0.6"/>
  <rect x="13" y="12" width="2" height="2" fill="#7c3aed" opacity="0.4" style="animation:rift-flicker 1.3s ease-in-out infinite 0.6s"/>
  <rect x="12" y="14" width="4" height="2" fill="#2e1065"/>
  <rect x="11" y="15" width="4" height="1" fill="#1e1b4b"/>
  <rect x="13" y="15" width="2" height="1" fill="#a855f7" opacity="0.5" style="animation:rift-flicker 0.7s ease-in-out infinite"/>
  <rect x="4" y="12" width="1" height="1" fill="#c084fc" opacity="0.4" style="animation:rift-flicker 2s ease-in-out infinite 1s"/>
  <rect x="2" y="14" width="1" height="1" fill="#a855f7" opacity="0.3" style="animation:rift-flicker 2.5s ease-in-out infinite 1.5s"/>
</svg>
