<svg viewBox="0 0 16 16" xmlns="http://www.w3.org/2000/svg" style="image-rendering:pixelated;shape-rendering:crispEdges;">
  <rect x="0" y="7" width="2" height="1" fill="#92400e"/>
  <rect x="1" y="6" width="2" height="1" fill="#92400e"/>
  <rect x="2" y="5" width="1" height="2" fill="#92400e"/>
  <rect x="1" y="5" width="1" height="1" fill="#166534"/>
  <rect x="0" y="6" width="1" height="1" fill="#166534"/>
  <rect x="3" y="7" width="8" height="5" fill="#b45309"/>
  <rect x="2" y="8" width="1" height="4" fill="#b45309"/>
  <rect x="11" y="8" width="1" height="3" fill="#b45309"/>
  <rect x="4" y="9" width="6" height="3" fill="#d97706" opacity="0.6"/>
  <rect x="3" y="7" width="2" height="1" fill="#15803d"/>
  <rect x="6" y="7" width="3" height="1" fill="#15803d"/>
  <rect x="9" y="8" width="2" height="1" fill="#15803d"/>
  <rect x="3" y="10" width="1" height="2" fill="#15803d"/>
  <rect x="10" y="9" width="1" height="2" fill="#15803d"/>
  <rect x="3" y="6" width="1" height="1" fill="#166534"/>
  <rect x="6" y="6" width="1" height="1" fill="#166534"/>
  <rect x="9" y="7" width="1" height="1" fill="#166534"/>
  <rect x="2" y="10" width="1" height="1" fill="#166534"/>
  <rect x="11" y="8" width="1" height="1" fill="#166534"/>
  <rect x="9" y="4" width="5" height="5" fill="#b45309"/>
  <rect x="8" y="5" width="1" height="4" fill="#b45309"/>
  <rect x="13" y="6" width="2" height="3" fill="#d97706"/>
  <rect x="14" y="7" width="2" height="2" fill="#d97706"/>
  <rect x="14" y="7" width="2" height="1" fill="#1c1917"/>
  <rect x="9" y="5" width="2" height="2" fill="#1c1917"/>
  <rect x="9" y="5" width="1" height="1" fill="#fef9c3" opacity="0.7"/>
  <rect x="12" y="5" width="2" height="2" fill="#1c1917"/>
  <rect x="12" y="5" width="1" height="1" fill="#fef9c3" opacity="0.7"/>
  <rect x="9" y="3" width="2" height="3" fill="#92400e"/>
  <rect x="13" y="3" width="2" height="3" fill="#92400e"/>
  <rect x="10" y="3" width="1" height="1" fill="#15803d"/>
  <rect x="13" y="3" width="1" height="1" fill="#15803d"/>
  <rect x="4" y="12" width="2" height="2" fill="#92400e"/>
  <rect x="3" y="13" width="3" height="1" fill="#92400e"/>
  <rect x="8" y="12" width="2" height="2" fill="#92400e"/>
  <rect x="7" y="13" width="3" height="1" fill="#92400e"/>
  <rect x="4" y="12" width="1" height="1" fill="#166534"/>
  <rect x="9" y="12" width="1" height="1" fill="#166534"/>
</svg>
