<svg viewBox="0 0 16 16" xmlns="http://www.w3.org/2000/svg" style="image-rendering:pixelated;shape-rendering:crispEdges;">
  <style>@keyframes star-twinkle { 0%,100%{opacity:0.4} 50%{opacity:1} }</style>
  <rect x="0" y="1" width="1" height="1" fill="#fef9c3" opacity="0.4" style="animation:star-twinkle 2s ease-in-out infinite"/>
  <rect x="15" y="3" width="1" height="1" fill="#fef9c3" opacity="0.3" style="animation:star-twinkle 3s ease-in-out infinite 0.7s"/>
  <rect x="1" y="13" width="1" height="1" fill="#fef9c3" opacity="0.3" style="animation:star-twinkle 2.5s ease-in-out infinite 1.2s"/>
  <rect x="0" y="7" width="5" height="2" fill="#1e3a5f"/>
  <rect x="0" y="9" width="4" height="2" fill="#1e40af"/>
  <rect x="1" y="11" width="3" height="1" fill="#1e3a5f"/>
  <rect x="0" y="9" width="1" height="3" fill="#1d4ed8"/>
  <rect x="1" y="10" width="1" height="2" fill="#1d4ed8"/>
  <rect x="2" y="10" width="1" height="2" fill="#1d4ed8"/>
  <rect x="3" y="9" width="1" height="2" fill="#1d4ed8"/>
  <rect x="1" y="8" width="1" height="1" fill="#fbbf24" opacity="0.8" style="animation:star-twinkle 1.5s ease-in-out infinite"/>
  <rect x="3" y="9" width="1" height="1" fill="#fef9c3" opacity="0.7" style="animation:star-twinkle 2s ease-in-out infinite 0.4s"/>
  <rect x="11" y="7" width="5" height="2" fill="#1e3a5f"/>
  <rect x="12" y="9" width="4" height="2" fill="#1e40af"/>
  <rect x="12" y="11" width="3" height="1" fill="#1e3a5f"/>
  <rect x="15" y="9" width="1" height="3" fill="#1d4ed8"/>
  <rect x="14" y="10" width="1" height="2" fill="#1d4ed8"/>
  <rect x="13" y="10" width="1" height="2" fill="#1d4ed8"/>
  <rect x="12" y="9" width="1" height="2" fill="#1d4ed8"/>
  <rect x="14" y="8" width="1" height="1" fill="#fbbf24" opacity="0.8" style="animation:star-twinkle 1.8s ease-in-out infinite 0.3s"/>
  <rect x="12" y="9" width="1" height="1" fill="#fef9c3" opacity="0.7" style="animation:star-twinkle 2.2s ease-in-out infinite 0.8s"/>
  <rect x="5" y="6" width="6" height="7" fill="#1e3a5f"/>
  <rect x="4" y="7" width="1" height="6" fill="#1e3a5f"/>
  <rect x="11" y="7" width="1" height="5" fill="#1e3a5f"/>
  <rect x="6" y="8" width="4" height="4" fill="#e0f2fe"/>
  <rect x="7" y="7" width="2" height="5" fill="#bfdbfe"/>
  <rect x="7" y="9" width="1" height="1" fill="#fbbf24" opacity="0.9" style="animation:star-twinkle 1s ease-in-out infinite"/>
  <rect x="9" y="10" width="1" height="1" fill="#fbbf24" opacity="0.7" style="animation:star-twinkle 1.5s ease-in-out infinite 0.5s"/>
  <rect x="6" y="10" width="1" height="1" fill="#fef9c3" opacity="0.6" style="animation:star-twinkle 2s ease-in-out infinite 1s"/>
  <rect x="5" y="2" width="6" height="5" fill="#e0f2fe"/>
  <rect x="4" y="3" width="1" height="3" fill="#e0f2fe"/>
  <rect x="9" y="2" width="2" height="3" fill="#1e3a5f"/>
  <rect x="10" y="3" width="1" height="2" fill="#1e40af"/>
  <rect x="7" y="2" width="2" height="1" fill="#fbbf24" opacity="0.9" style="animation:star-twinkle 1.2s ease-in-out infinite"/>
  <rect x="5" y="3" width="2" height="2" fill="#fbbf24" opacity="0.95"/>
  <rect x="5" y="3" width="1" height="1" fill="#fef9c3"/>
  <rect x="8" y="3" width="2" height="2" fill="#fbbf24" opacity="0.95"/>
  <rect x="8" y="3" width="1" height="1" fill="#fef9c3"/>
  <rect x="5" y="5" width="3" height="1" fill="#f97316"/>
  <rect x="5" y="6" width="2" height="1" fill="#ea580c"/>
  <rect x="4" y="6" width="2" height="1" fill="#f97316"/>
  <rect x="5" y="13" width="2" height="1" fill="#1e3a5f"/>
  <rect x="4" y="13" width="3" height="1" fill="#1e40af"/>
  <rect x="3" y="14" width="2" height="1" fill="#1c1917"/>
  <rect x="5" y="14" width="2" height="1" fill="#1c1917"/>
  <rect x="9" y="13" width="2" height="1" fill="#1e3a5f"/>
  <rect x="9" y="13" width="3" height="1" fill="#1e40af"/>
  <rect x="9" y="14" width="2" height="1" fill="#1c1917"/>
  <rect x="11" y="14" width="2" height="1" fill="#1c1917"/>
</svg>
