<svg viewBox="0 0 16 16" xmlns="http://www.w3.org/2000/svg" style="image-rendering:pixelated;shape-rendering:crispEdges;">
  <style>
    @keyframes sylvix-wisp { 0%,100%{opacity:0.6} 50%{opacity:1} }
  </style>
  <ellipse cx="8" cy="10" rx="4" ry="3" fill="#7c3aed" opacity="0.3"/>
  <rect x="1" y="9" width="2" height="1" fill="#a78bfa"/>
  <rect x="0" y="8" width="2" height="1" fill="#a78bfa"/>
  <rect x="1" y="7" width="1" height="1" fill="#c4b5fd"/>
  <rect x="2" y="6" width="1" height="1" fill="#c4b5fd"/>
  <rect x="4" y="8" width="6" height="4" fill="#ddd6fe"/>
  <rect x="3" y="9" width="1" height="3" fill="#ddd6fe"/>
  <rect x="10" y="9" width="1" height="2" fill="#ddd6fe"/>
  <rect x="5" y="9" width="4" height="3" fill="#ede9fe"/>
  <rect x="4" y="12" width="2" height="2" fill="#a78bfa"/>
  <rect x="8" y="12" width="2" height="2" fill="#a78bfa"/>
  <rect x="5" y="4" width="6" height="5" fill="#ddd6fe"/>
  <rect x="5" y="2" width="2" height="3" fill="#ddd6fe"/>
  <rect x="9" y="2" width="2" height="3" fill="#ddd6fe"/>
  <rect x="6" y="2" width="1" height="2" fill="#7c3aed"/>
  <rect x="9" y="2" width="1" height="2" fill="#7c3aed"/>
  <rect x="6" y="6" width="2" height="2" fill="#7c3aed"/>
  <rect x="9" y="6" width="2" height="2" fill="#7c3aed"/>
  <rect x="7" y="6" width="1" height="1" fill="#c084fc"/>
  <rect x="10" y="6" width="1" height="1" fill="#c084fc"/>
  <rect x="8" y="8" width="1" height="1" fill="#7c3aed"/>
  <rect x="7" y="7" width="3" height="2" fill="#ede9fe"/>
  <rect x="2" y="5" width="1" height="1" fill="#c084fc" opacity="0.8" style="animation:sylvix-wisp 2s ease-in-out infinite"/>
  <rect x="13" y="7" width="1" height="1" fill="#c084fc" opacity="0.6" style="animation:sylvix-wisp 2.5s ease-in-out infinite 0.5s"/>
  <rect x="12" y="4" width="1" height="1" fill="#a78bfa" opacity="0.5" style="animation:sylvix-wisp 3s ease-in-out infinite 1s"/>
</svg>
