<svg viewBox="0 0 16 16" xmlns="http://www.w3.org/2000/svg" style="image-rendering:pixelated;shape-rendering:crispEdges;">
  <style>
    @keyframes gold-pulse{0%,100%{opacity:0.5}50%{opacity:1}}
    @keyframes sand-fall{0%,100%{opacity:0.3}50%{opacity:0.8}}
    @keyframes rune-glow{0%,100%{opacity:0.4}50%{opacity:0.9}}
  </style>
  <rect x="3" y="14" width="10" height="1" fill="#92400e" opacity="0.3" style="animation:gold-pulse 2s ease-in-out infinite"/>
  <rect x="1" y="13" width="14" height="1" fill="#78350f" opacity="0.2" style="animation:gold-pulse 2.5s ease-in-out infinite 0.5s"/>
  <rect x="2" y="13" width="1" height="1" fill="#fbbf24" opacity="0.4" style="animation:rune-glow 1.8s ease-in-out infinite"/>
  <rect x="13" y="13" width="1" height="1" fill="#fbbf24" opacity="0.4" style="animation:rune-glow 2s ease-in-out infinite 0.4s"/>
  <rect x="7" y="14" width="1" height="1" fill="#f59e0b" opacity="0.5" style="animation:rune-glow 1.5s ease-in-out infinite 0.2s"/>
  <rect x="0" y="4" width="3" height="1" fill="#92400e"/>
  <rect x="1" y="5" width="1" height="1" fill="#92400e"/>
  <rect x="0" y="6" width="3" height="1" fill="#92400e"/>
  <rect x="0" y="5" width="3" height="1" fill="#fef3c7" opacity="0.3"/>
  <rect x="1" y="5" width="1" height="1" fill="#fbbf24" opacity="0.6" style="animation:sand-fall 1.5s ease-in-out infinite"/>
  <rect x="13" y="4" width="3" height="1" fill="#92400e"/>
  <rect x="14" y="5" width="1" height="1" fill="#92400e"/>
  <rect x="13" y="6" width="3" height="1" fill="#92400e"/>
  <rect x="13" y="5" width="3" height="1" fill="#fef3c7" opacity="0.3"/>
  <rect x="14" y="5" width="1" height="1" fill="#fbbf24" opacity="0.6" style="animation:sand-fall 1.5s ease-in-out infinite 0.5s"/>
  <rect x="6" y="9" width="4" height="4" fill="#451a03" opacity="0.8"/>
  <rect x="7" y="9" width="2" height="4" fill="#78350f" opacity="0.5"/>
  <rect x="6" y="10" width="4" height="2" fill="#1c0a00"/>
  <rect x="7" y="10" width="2" height="2" fill="#292524" opacity="0.6"/>
  <rect x="7" y="10" width="1" height="1" fill="#fbbf24" style="animation:gold-pulse 1s ease-in-out infinite"/>
  <rect x="8" y="11" width="1" height="1" fill="#f59e0b" style="animation:gold-pulse 1.2s ease-in-out infinite 0.2s"/>
  <rect x="4" y="8" width="8" height="5" fill="#78350f"/>
  <rect x="3" y="9" width="1" height="4" fill="#78350f"/>
  <rect x="12" y="9" width="1" height="4" fill="#78350f"/>
  <rect x="4" y="8" width="3" height="2" fill="#92400e" opacity="0.5"/>
  <rect x="9" y="9" width="3" height="2" fill="#92400e" opacity="0.4"/>
  <rect x="4" y="10" width="1" height="1" fill="#fbbf24" opacity="0.4" style="animation:rune-glow 2s ease-in-out infinite"/>
  <rect x="11" y="10" width="1" height="1" fill="#fbbf24" opacity="0.4" style="animation:rune-glow 2.2s ease-in-out infinite 0.6s"/>
  <rect x="0" y="9" width="3" height="2" fill="#78350f"/>
  <rect x="0" y="8" width="2" height="1" fill="#92400e"/>
  <rect x="1" y="7" width="2" height="2" fill="#78350f"/>
  <rect x="2" y="7" width="1" height="1" fill="#fbbf24" opacity="0.7" style="animation:gold-pulse 1.5s ease-in-out infinite"/>
  <rect x="4" y="13" width="2" height="2" fill="#78350f"/>
  <rect x="3" y="14" width="3" height="1" fill="#451a03"/>
  <rect x="7" y="13" width="2" height="2" fill="#78350f"/>
  <rect x="6" y="14" width="3" height="1" fill="#451a03"/>
  <rect x="10" y="13" width="2" height="2" fill="#78350f"/>
  <rect x="9" y="14" width="3" height="1" fill="#451a03"/>
  <rect x="7" y="5" width="3" height="4" fill="#78350f"/>
  <rect x="6" y="7" width="5" height="1" fill="#92400e"/>
  <rect x="7" y="7" width="3" height="1" fill="#fbbf24" opacity="0.5" style="animation:gold-pulse 1.8s ease-in-out infinite"/>
  <rect x="5" y="2" width="7" height="5" fill="#78350f"/>
  <rect x="4" y="3" width="1" height="4" fill="#78350f"/>
  <rect x="12" y="3" width="1" height="3" fill="#78350f"/>
  <rect x="5" y="0" width="2" height="3" fill="#78350f"/>
  <rect x="5" y="0" width="1" height="2" fill="#92400e"/>
  <rect x="6" y="0" width="1" height="1" fill="#fbbf24" opacity="0.5" style="animation:gold-pulse 2s ease-in-out infinite"/>
  <rect x="10" y="0" width="2" height="3" fill="#78350f"/>
  <rect x="11" y="0" width="1" height="2" fill="#92400e"/>
  <rect x="10" y="0" width="1" height="1" fill="#fbbf24" opacity="0.5" style="animation:gold-pulse 2s ease-in-out infinite 0.4s"/>
  <rect x="5" y="3" width="2" height="2" fill="#f59e0b" opacity="0.95" style="animation:gold-pulse 1.5s ease-in-out infinite"/>
  <rect x="5" y="3" width="1" height="1" fill="#fef9c3"/>
  <rect x="9" y="3" width="2" height="2" fill="#f59e0b" opacity="0.95" style="animation:gold-pulse 1.5s ease-in-out infinite 0.3s"/>
  <rect x="9" y="3" width="1" height="1" fill="#fef9c3"/>
  <rect x="7" y="2" width="2" height="1" fill="#fbbf24" opacity="0.7" style="animation:rune-glow 1.2s ease-in-out infinite"/>
  <rect x="7" y="5" width="2" height="1" fill="#b45309"/>
  <rect x="3" y="4" width="2" height="1" fill="#fbbf24" opacity="0.4"/>
  <rect x="3" y="5" width="2" height="1" fill="#fbbf24" opacity="0.3"/>
  <rect x="12" y="4" width="2" height="1" fill="#fbbf24" opacity="0.4"/>
  <rect x="12" y="5" width="2" height="1" fill="#fbbf24" opacity="0.3"/>
</svg>
