<svg viewBox="0 0 16 16" xmlns="http://www.w3.org/2000/svg" style="image-rendering:pixelated;shape-rendering:crispEdges;">
  <rect x="2" y="5" width="12" height="8" fill="#365314"/>
  <rect x="1" y="7" width="1" height="4" fill="#365314"/>
  <rect x="14" y="7" width="1" height="4" fill="#365314"/>
  <rect x="3" y="4" width="10" height="1" fill="#365314"/>
  <rect x="3" y="5" width="4" height="4" fill="#3f6212" opacity="0.8"/>
  <rect x="8" y="5" width="5" height="4" fill="#3f6212" opacity="0.7"/>
  <rect x="3" y="9" width="10" height="3" fill="#4d7c0f" opacity="0.6"/>
  <rect x="7" y="5" width="1" height="8" fill="#1a2e05" opacity="0.5"/>
  <rect x="3" y="8" width="10" height="1" fill="#1a2e05" opacity="0.4"/>
  <rect x="4" y="6" width="2" height="1" fill="#1a2e05" opacity="0.4"/>
  <rect x="9" y="7" width="3" height="1" fill="#1a2e05" opacity="0.4"/>
  <rect x="4" y="10" width="4" height="1" fill="#1a2e05" opacity="0.3"/>
  <rect x="4" y="3" width="1" height="3" fill="#92400e"/>
  <rect x="3" y="2" width="1" height="1" fill="#a16207"/>
  <rect x="7" y="2" width="1" height="4" fill="#92400e"/>
  <rect x="6" y="1" width="1" height="1" fill="#a16207"/>
  <rect x="10" y="3" width="1" height="3" fill="#92400e"/>
  <rect x="9" y="2" width="1" height="1" fill="#a16207"/>
  <rect x="13" y="4" width="1" height="3" fill="#92400e"/>
  <rect x="12" y="3" width="1" height="1" fill="#a16207"/>
  <rect x="4" y="5" width="2" height="1" fill="#16a34a" opacity="0.6"/>
  <rect x="9" y="6" width="3" height="1" fill="#16a34a" opacity="0.5"/>
  <rect x="5" y="9" width="2" height="1" fill="#16a34a" opacity="0.4"/>
  <rect x="10" y="8" width="4" height="3" fill="#4d7c0f"/>
  <rect x="13" y="9" width="2" height="2" fill="#65a30d"/>
  <rect x="11" y="8" width="2" height="2" fill="#1c1917"/>
  <rect x="11" y="8" width="1" height="1" fill="#fef9c3" opacity="0.6"/>
  <rect x="13" y="10" width="2" height="1" fill="#1a2e05"/>
  <rect x="2" y="11" width="3" height="2" fill="#4d7c0f"/>
  <rect x="1" y="12" width="3" height="1" fill="#365314"/>
  <rect x="11" y="11" width="3" height="2" fill="#4d7c0f"/>
  <rect x="12" y="12" width="3" height="1" fill="#365314"/>
  <rect x="1" y="10" width="2" height="1" fill="#365314"/>
</svg>
