<svg viewBox="0 0 16 16" xmlns="http://www.w3.org/2000/svg" style="image-rendering:pixelated;shape-rendering:crispEdges;">
  <style>
    @keyframes nova-pulse { 0%,100%{opacity:0.7;transform:scale(1)} 50%{opacity:1;transform:scale(1.05)} }
    @keyframes crack-glow { 0%,100%{opacity:0.6} 50%{opacity:1} }
    @keyframes supernova-ring { 0%,100%{opacity:0.3} 50%{opacity:0.7} }
  </style>
  <rect x="4" y="5" width="8" height="7" fill="#fbbf24" opacity="0.1" style="animation:supernova-ring 2s ease-in-out infinite"/>
  <rect x="0" y="10" width="3" height="2" fill="#7f1d1d"/>
  <rect x="0" y="9" width="2" height="1" fill="#991b1b"/>
  <rect x="1" y="11" width="2" height="1" fill="#991b1b"/>
  <rect x="0" y="10" width="1" height="1" fill="#f97316" opacity="0.7" style="animation:crack-glow 1.5s ease-in-out infinite"/>
  <rect x="2" y="10" width="1" height="1" fill="#fbbf24" opacity="0.5" style="animation:crack-glow 2s ease-in-out infinite 0.3s"/>
  <rect x="2" y="7" width="9" height="6" fill="#7f1d1d"/>
  <rect x="1" y="8" width="1" height="5" fill="#7f1d1d"/>
  <rect x="11" y="8" width="1" height="4" fill="#7f1d1d"/>
  <rect x="3" y="7" width="8" height="2" fill="#991b1b"/>
  <rect x="4" y="6" width="6" height="1" fill="#b91c1c"/>
  <rect x="3" y="9" width="2" height="1" fill="#f97316" opacity="0.8" style="animation:crack-glow 1.8s ease-in-out infinite"/>
  <rect x="6" y="10" width="3" height="1" fill="#fbbf24" opacity="0.6" style="animation:crack-glow 2.2s ease-in-out infinite 0.5s"/>
  <rect x="9" y="8" width="2" height="2" fill="#f97316" opacity="0.7" style="animation:crack-glow 1.6s ease-in-out infinite 0.2s"/>
  <rect x="2" y="11" width="3" height="1" fill="#fbbf24" opacity="0.4" style="animation:crack-glow 2.5s ease-in-out infinite 0.8s"/>
  <rect x="4" y="8" width="5" height="4" fill="#1c0a00"/>
  <rect x="5" y="8" width="3" height="4" fill="#292524" opacity="0.8"/>
  <rect x="6" y="9" width="3" height="2" fill="#fef9c3" style="animation:nova-pulse 1s ease-in-out infinite"/>
  <rect x="6" y="9" width="3" height="2" fill="#ffffff" opacity="0.8" style="animation:nova-pulse 1s ease-in-out infinite"/>
  <rect x="5" y="9" width="1" height="2" fill="#fbbf24" opacity="0.7" style="animation:supernova-ring 1s ease-in-out infinite"/>
  <rect x="9" y="9" width="1" height="2" fill="#fbbf24" opacity="0.7" style="animation:supernova-ring 1s ease-in-out infinite 0.2s"/>
  <rect x="6" y="8" width="3" height="1" fill="#f97316" opacity="0.8" style="animation:supernova-ring 1s ease-in-out infinite 0.1s"/>
  <rect x="6" y="11" width="3" height="1" fill="#f97316" opacity="0.8" style="animation:supernova-ring 1s ease-in-out infinite 0.3s"/>
  <rect x="4" y="8" width="1" height="4" fill="#ef4444" opacity="0.3" style="animation:supernova-ring 1.5s ease-in-out infinite"/>
  <rect x="10" y="8" width="1" height="4" fill="#ef4444" opacity="0.3" style="animation:supernova-ring 1.5s ease-in-out infinite 0.3s"/>
  <rect x="11" y="8" width="2" height="2" fill="#7f1d1d"/>
  <rect x="12" y="9" width="2" height="1" fill="#991b1b"/>
  <rect x="9" y="4" width="3" height="4" fill="#7f1d1d"/>
  <rect x="10" y="3" width="2" height="2" fill="#7f1d1d"/>
  <rect x="8" y="2" width="6" height="5" fill="#7f1d1d"/>
  <rect x="13" y="3" width="3" height="4" fill="#991b1b"/>
  <rect x="9" y="6" width="7" height="2" fill="#b91c1c"/>
  <rect x="10" y="7" width="6" height="2" fill="#7f1d1d"/>
  <rect x="10" y="8" width="1" height="1" fill="#fef9c3"/>
  <rect x="12" y="8" width="1" height="1" fill="#fef9c3"/>
  <rect x="14" y="8" width="1" height="1" fill="#fef9c3"/>
  <rect x="11" y="6" width="1" height="1" fill="#fef9c3"/>
  <rect x="13" y="6" width="1" height="1" fill="#fef9c3"/>
  <rect x="9" y="3" width="3" height="3" fill="#1c1917"/>
  <rect x="10" y="4" width="2" height="2" fill="#fef9c3" style="animation:nova-pulse 0.8s ease-in-out infinite"/>
  <rect x="10" y="4" width="1" height="1" fill="#ffffff"/>
  <rect x="9" y="4" width="1" height="1" fill="#f97316" opacity="0.8"/>
  <rect x="12" y="4" width="1" height="1" fill="#f97316" opacity="0.8"/>
  <rect x="10" y="3" width="2" height="1" fill="#fbbf24" opacity="0.6"/>
  <rect x="15" y="5" width="1" height="1" fill="#450a0a"/>
  <rect x="8" y="2" width="5" height="1" fill="#b91c1c"/>
  <rect x="9" y="1" width="3" height="1" fill="#ef4444" opacity="0.6"/>
  <rect x="11" y="2" width="1" height="3" fill="#f97316" opacity="0.5" style="animation:crack-glow 2s ease-in-out infinite"/>
  <rect x="3" y="13" width="3" height="2" fill="#7f1d1d"/>
  <rect x="2" y="14" width="4" height="1" fill="#57130a"/>
  <rect x="3" y="14" width="1" height="1" fill="#f97316" opacity="0.4"/>
  <rect x="7" y="13" width="3" height="2" fill="#7f1d1d"/>
  <rect x="6" y="14" width="4" height="1" fill="#57130a"/>
  <rect x="8" y="14" width="1" height="1" fill="#fbbf24" opacity="0.3"/>
  <rect x="2" y="15" width="2" height="1" fill="#450a0a"/>
  <rect x="5" y="15" width="2" height="1" fill="#450a0a"/>
  <rect x="6" y="15" width="2" height="1" fill="#450a0a"/>
  <rect x="9" y="15" width="2" height="1" fill="#450a0a"/>
</svg>
