<svg viewBox="0 0 16 16" xmlns="http://www.w3.org/2000/svg" style="image-rendering:pixelated;shape-rendering:crispEdges;">
  <style>
    @keyframes storm-flash { 0%,85%,100%{opacity:0} 87%,95%{opacity:1} }
  </style>
  <rect x="2" y="1" width="12" height="4" fill="#374151" opacity="0.6"/>
  <rect x="1" y="2" width="14" height="3" fill="#4b5563" opacity="0.4"/>
  <rect x="4" y="4" width="1" height="2" fill="#fde68a" opacity="0.9" style="animation:storm-flash 3s ease-in-out infinite"/>
  <rect x="3" y="6" width="2" height="1" fill="#fde68a" opacity="0.9" style="animation:storm-flash 3s ease-in-out infinite"/>
  <rect x="11" y="4" width="1" height="2" fill="#fde68a" opacity="0.7" style="animation:storm-flash 3s ease-in-out infinite 1s"/>
  <rect x="10" y="6" width="2" height="1" fill="#fde68a" opacity="0.7" style="animation:storm-flash 3s ease-in-out infinite 1s"/>
  <rect x="0" y="7" width="4" height="2" fill="#1f2937"/>
  <rect x="0" y="9" width="3" height="2" fill="#111827"/>
  <rect x="1" y="11" width="2" height="1" fill="#111827"/>
  <rect x="12" y="7" width="4" height="2" fill="#1f2937"/>
  <rect x="13" y="9" width="3" height="2" fill="#111827"/>
  <rect x="13" y="11" width="2" height="1" fill="#111827"/>
  <rect x="1" y="8" width="3" height="1" fill="#fbbf24" opacity="0.4" style="animation:storm-flash 2s ease-in-out infinite 0.5s"/>
  <rect x="12" y="8" width="3" height="1" fill="#fbbf24" opacity="0.4" style="animation:storm-flash 2s ease-in-out infinite 1.5s"/>
  <rect x="5" y="7" width="6" height="6" fill="#1f2937"/>
  <rect x="4" y="8" width="1" height="5" fill="#1f2937"/>
  <rect x="11" y="8" width="1" height="4" fill="#1f2937"/>
  <rect x="6" y="9" width="4" height="3" fill="#111827"/>
  <rect x="7" y="8" width="2" height="5" fill="#374151" opacity="0.4"/>
  <rect x="5" y="3" width="6" height="5" fill="#1f2937"/>
  <rect x="7" y="7" width="2" height="1" fill="#6b7280"/>
  <rect x="8" y="8" width="2" height="1" fill="#4b5563"/>
  <rect x="5" y="4" width="2" height="2" fill="#fbbf24" opacity="0.9"/>
  <rect x="6" y="4" width="1" height="1" fill="#fef9c3"/>
  <rect x="9" y="4" width="2" height="2" fill="#fbbf24" opacity="0.9"/>
  <rect x="9" y="4" width="1" height="1" fill="#fef9c3"/>
  <rect x="6" y="2" width="1" height="2" fill="#111827"/>
  <rect x="8" y="1" width="1" height="3" fill="#111827"/>
  <rect x="10" y="2" width="1" height="2" fill="#111827"/>
  <rect x="5" y="13" width="2" height="1" fill="#374151"/>
  <rect x="4" y="13" width="3" height="1" fill="#1f2937"/>
  <rect x="9" y="13" width="2" height="1" fill="#374151"/>
  <rect x="9" y="13" width="3" height="1" fill="#1f2937"/>
  <rect x="6" y="10" width="1" height="1" fill="#fbbf24" opacity="0.3" style="animation:storm-flash 1.5s ease-in-out infinite 0.8s"/>
  <rect x="9" y="9" width="1" height="1" fill="#fbbf24" opacity="0.3" style="animation:storm-flash 2s ease-in-out infinite 0.3s"/>
</svg>
