<svg viewBox="0 0 16 16" xmlns="http://www.w3.org/2000/svg" style="image-rendering:pixelated;shape-rendering:crispEdges;">
  <style>@keyframes void-pulse { 0%,100%{opacity:0.5} 50%{opacity:0.9} }</style>
  <rect x="0" y="6" width="3" height="2" fill="#4c1d95"/>
  <rect x="0" y="9" width="3" height="2" fill="#4c1d95"/>
  <rect x="1" y="8" width="2" height="1" fill="#6d28d9"/>
  <rect x="2" y="7" width="11" height="4" fill="#2e1065"/>
  <rect x="1" y="8" width="1" height="3" fill="#2e1065"/>
  <rect x="13" y="8" width="1" height="2" fill="#2e1065"/>
  <rect x="2" y="7" width="11" height="1" fill="#4c1d95"/>
  <rect x="3" y="6" width="9" height="1" fill="#6d28d9" opacity="0.6"/>
  <rect x="3" y="10" width="9" height="1" fill="#7c3aed" opacity="0.4"/>
  <rect x="4" y="10" width="7" height="1" fill="#a78bfa" opacity="0.3"/>
  <rect x="6" y="4" width="3" height="4" fill="#4c1d95"/>
  <rect x="7" y="3" width="2" height="2" fill="#6d28d9"/>
  <rect x="7" y="2" width="1" height="2" fill="#7c3aed"/>
  <rect x="4" y="10" width="3" height="2" fill="#4c1d95"/>
  <rect x="3" y="11" width="4" height="1" fill="#2e1065"/>
  <rect x="9" y="10" width="3" height="2" fill="#4c1d95"/>
  <rect x="9" y="11" width="4" height="1" fill="#2e1065"/>
  <rect x="11" y="7" width="4" height="4" fill="#2e1065"/>
  <rect x="14" y="8" width="2" height="2" fill="#4c1d95"/>
  <rect x="15" y="8" width="1" height="2" fill="#6d28d9"/>
  <rect x="13" y="8" width="3" height="1" fill="#4c1d95"/>
  <rect x="13" y="10" width="3" height="1" fill="#2e1065"/>
  <rect x="13" y="9" width="1" height="1" fill="#f8fafc"/>
  <rect x="14" y="9" width="1" height="1" fill="#f8fafc"/>
  <rect x="15" y="9" width="1" height="1" fill="#f8fafc"/>
  <rect x="11" y="8" width="2" height="2" fill="#a78bfa" opacity="0.9" style="animation:void-pulse 1.5s ease-in-out infinite"/>
  <rect x="11" y="8" width="1" height="1" fill="#ede9fe"/>
  <rect x="4" y="8" width="6" height="1" fill="#7c3aed" opacity="0.3" style="animation:void-pulse 2s ease-in-out infinite"/>
  <rect x="5" y="9" width="5" height="1" fill="#6d28d9" opacity="0.2" style="animation:void-pulse 2.5s ease-in-out infinite 0.5s"/>
  <rect x="0" y="7" width="2" height="1" fill="#7c3aed" opacity="0.4" style="animation:void-pulse 2s ease-in-out infinite 0.3s"/>
  <rect x="0" y="10" width="2" height="1" fill="#7c3aed" opacity="0.3" style="animation:void-pulse 3s ease-in-out infinite 1s"/>
</svg>
