<svg viewBox="0 0 16 16" xmlns="http://www.w3.org/2000/svg" style="image-rendering:pixelated;shape-rendering:crispEdges;">
  <style>
    @keyframes wisprat-flame { 0%,100%{transform:scaleY(1)} 50%{transform:scaleY(1.15)} }
  </style>
  <rect x="1" y="7" width="1" height="1" fill="#fbbf24" opacity="0.4" style="animation:wisprat-flame 1s ease-in-out infinite"/>
  <rect x="1" y="6" width="2" height="2" fill="#f97316" style="animation:wisprat-flame 1s ease-in-out infinite"/>
  <rect x="2" y="5" width="2" height="2" fill="#fbbf24" style="animation:wisprat-flame 0.9s ease-in-out infinite 0.1s"/>
  <rect x="2" y="4" width="1" height="2" fill="#fef3c7" style="animation:wisprat-flame 0.8s ease-in-out infinite 0.2s"/>
  <rect x="2" y="9" width="3" height="1" fill="#d6d3d1"/>
  <rect x="1" y="8" width="2" height="2" fill="#d6d3d1"/>
  <rect x="4" y="8" width="7" height="5" fill="#a8a29e"/>
  <rect x="3" y="9" width="1" height="4" fill="#a8a29e"/>
  <rect x="11" y="9" width="1" height="3" fill="#a8a29e"/>
  <rect x="5" y="9" width="5" height="4" fill="#d6d3d1"/>
  <rect x="8" y="5" width="5" height="5" fill="#a8a29e"/>
  <rect x="7" y="6" width="1" height="4" fill="#a8a29e"/>
  <rect x="13" y="7" width="2" height="2" fill="#d6d3d1"/>
  <rect x="14" y="8" width="1" height="1" fill="#fda4af"/>
  <rect x="9" y="6" width="2" height="2" fill="#1c1917"/>
  <rect x="9" y="6" width="1" height="1" fill="#fef9c3" opacity="0.7"/>
  <rect x="9" y="4" width="2" height="2" fill="#a8a29e"/>
  <rect x="10" y="4" width="1" height="2" fill="#fda4af" opacity="0.5"/>
  <rect x="4" y="8" width="2" height="2" fill="#fbbf24" opacity="0.15"/>
  <rect x="4" y="13" width="2" height="1" fill="#78716c"/>
  <rect x="8" y="13" width="2" height="1" fill="#78716c"/>
  <rect x="12" y="7" width="3" height="1" fill="#e7e5e4" opacity="0.5"/>
  <rect x="12" y="9" width="3" height="1" fill="#e7e5e4" opacity="0.5"/>
</svg>
